<svg width="87" height="33" viewBox="0 0 87 33" fill="none" xmlns="http://www.w3.org/2000/svg">
<g clip-path="url(#clip0_2_9)">
<path fill-rule="evenodd" clip-rule="evenodd" d="M17.3005 0.502655C8.24293 0.502655 0.897583 7.84608 0.897583 16.9055C0.897583 24.1526 5.59734 30.3012 12.1149 32.4699C12.9346 32.6218 13.2357 32.114 13.2357 31.6807C13.2357 31.2897 13.2203 29.9974 13.2133 28.6272C8.64968 29.6192 7.68698 26.6918 7.68698 26.6918C6.94096 24.7957 5.86568 24.2914 5.86568 24.2914C4.37749 23.2735 5.97749 23.2944 5.97749 23.2944C7.62491 23.41 8.49238 24.985 8.49238 24.985C9.95513 27.4925 12.3297 26.7673 13.2654 26.3482C13.4131 25.288 13.8379 24.564 14.3071 24.1545C10.6638 23.7401 6.83378 22.3332 6.83378 16.0481C6.83378 14.2573 7.47455 12.7941 8.52399 11.6452C8.35358 11.2319 7.79223 9.56328 8.68284 7.304C8.68284 7.304 10.06 6.86372 13.1937 8.98613C14.5026 8.62256 15.906 8.4402 17.2997 8.43403C18.6938 8.44058 20.098 8.62295 21.4088 8.98613C24.5394 6.8641 25.915 7.30439 25.915 7.30439C26.8079 9.56367 26.2466 11.2319 26.0762 11.6456C27.1279 12.7937 27.7641 14.2573 27.7641 16.0485C27.7641 22.3482 23.9268 23.7354 20.2742 24.141C20.8625 24.6499 21.3868 25.6485 21.3868 27.1791C21.3868 29.3736 21.3683 31.1398 21.3683 31.6799C21.3683 32.1156 21.6637 32.6276 22.4949 32.4664C29.009 30.295 33.7026 24.1487 33.7026 16.904C33.7034 7.84646 26.3596 0.502655 17.3005 0.502655Z" fill="white"/>
<path d="M7.1106 24.0531C7.07397 24.1349 6.94558 24.1592 6.82915 24.1032C6.70963 24.0493 6.64332 23.9386 6.68187 23.8565C6.71657 23.7732 6.84534 23.7497 6.96448 23.8056C7.084 23.8596 7.15146 23.9714 7.1106 24.0531ZM7.77489 24.7949C7.69662 24.867 7.54356 24.8335 7.43946 24.7186C7.33228 24.6041 7.31224 24.451 7.39166 24.3778C7.47185 24.3053 7.62028 24.3392 7.72708 24.4537C7.83503 24.5694 7.85624 24.7209 7.7745 24.7945L7.77489 24.7949ZM8.42144 25.7387C8.3212 25.8089 8.15657 25.7433 8.05518 25.5972C7.95416 25.4519 7.95416 25.2772 8.0571 25.2067C8.15889 25.1365 8.32081 25.1997 8.42337 25.3443C8.52438 25.4927 8.52438 25.6678 8.42144 25.7387ZM9.30742 26.6517C9.21759 26.7508 9.02597 26.7242 8.88602 26.5888C8.7426 26.4566 8.70289 26.2688 8.79272 26.1698C8.88409 26.0707 9.07648 26.0984 9.21758 26.2326C9.36024 26.3645 9.40342 26.553 9.30742 26.6517ZM10.5304 27.1814C10.4903 27.3102 10.306 27.3684 10.1201 27.314C9.93431 27.2578 9.81325 27.1074 9.85026 26.9778C9.88881 26.8483 10.0746 26.7878 10.2616 26.846C10.4467 26.9015 10.5685 27.0503 10.5304 27.1814ZM11.872 27.2797C11.8771 27.4147 11.7194 27.5272 11.5243 27.5296C11.3284 27.5342 11.1696 27.4247 11.1673 27.2913C11.1673 27.1548 11.3215 27.0438 11.5173 27.0407C11.7124 27.0368 11.872 27.1456 11.872 27.2797ZM13.1212 27.0673C13.1443 27.1992 13.0094 27.3349 12.8155 27.3707C12.625 27.4062 12.4492 27.3245 12.4245 27.1934C12.4014 27.0584 12.539 26.9235 12.7291 26.888C12.923 26.8541 13.0965 26.9331 13.1212 27.0673Z" fill="white"/>
<path d="M46.6287 15.5444H42.5034C42.4523 15.5444 42.4032 15.5647 42.3671 15.6009C42.3309 15.637 42.3106 15.6861 42.3106 15.7372V17.7544C42.3106 17.8055 42.3309 17.8545 42.3671 17.8907C42.4032 17.9268 42.4523 17.9471 42.5034 17.9471H44.1122V20.4532C44.1122 20.4532 43.751 20.5765 42.7513 20.5765C41.5731 20.5765 39.9264 20.1463 39.9264 16.5253C39.9264 12.9039 41.6413 12.4269 43.2513 12.4269C44.6447 12.4269 45.2446 12.6721 45.627 12.7905C45.7466 12.8267 45.8584 12.7072 45.8584 12.6008L46.3183 10.6519C46.3191 10.6227 46.3127 10.5938 46.2998 10.5676C46.2869 10.5414 46.2679 10.5187 46.2443 10.5015C46.0889 10.3905 45.1428 9.86154 42.7521 9.86154C39.9977 9.86154 37.1725 11.0328 37.1725 16.6664C37.1725 22.2991 40.4072 23.1385 43.133 23.1385C45.3899 23.1385 46.759 22.1738 46.759 22.1738C46.8153 22.143 46.8214 22.064 46.8214 22.0273V15.7368C46.8214 15.6857 46.8011 15.6367 46.765 15.6005C46.7288 15.5644 46.6798 15.5444 46.6287 15.5444ZM67.6989 10.3427H65.3757C65.3503 10.3428 65.3252 10.3479 65.3019 10.3577C65.2785 10.3675 65.2573 10.3818 65.2394 10.3998C65.2216 10.4179 65.2075 10.4392 65.1979 10.4627C65.1884 10.4862 65.1835 10.5113 65.1837 10.5366L65.1844 15.0259H61.5634V10.5366C61.5636 10.5113 61.5587 10.4862 61.5492 10.4628C61.5396 10.4393 61.5256 10.418 61.5078 10.4C61.49 10.382 61.4688 10.3676 61.4455 10.3578C61.4222 10.348 61.3971 10.3429 61.3718 10.3427H59.0489C59.0236 10.3428 58.9985 10.3479 58.9751 10.3577C58.9517 10.3675 58.9305 10.3818 58.9127 10.3998C58.8949 10.4179 58.8808 10.4392 58.8712 10.4627C58.8616 10.4862 58.8568 10.5113 58.8569 10.5366V22.6928C58.8569 22.7996 58.9433 22.8867 59.0489 22.8867H61.3718C61.3972 22.8865 61.4222 22.8814 61.4456 22.8715C61.4689 22.8617 61.4901 22.8473 61.5079 22.8293C61.5257 22.8112 61.5398 22.7899 61.5493 22.7664C61.5588 22.7429 61.5636 22.7177 61.5634 22.6924V17.493H65.1844L65.1783 22.6924C65.1783 22.7996 65.2646 22.8867 65.371 22.8867H67.6989C67.7243 22.8865 67.7494 22.8814 67.7727 22.8715C67.7961 22.8617 67.8173 22.8473 67.8351 22.8293C67.8529 22.8112 67.8669 22.7899 67.8764 22.7664C67.886 22.7429 67.8908 22.7177 67.8906 22.6924V10.5362C67.8908 10.5109 67.886 10.4858 67.8765 10.4623C67.867 10.4389 67.8529 10.4175 67.8351 10.3995C67.8173 10.3815 67.7961 10.3672 67.7727 10.3575C67.7493 10.3477 67.7243 10.3427 67.6989 10.3427ZM49.5145 10.6191C48.6879 10.6191 48.017 11.295 48.017 12.1316C48.017 12.9671 48.6879 13.6449 49.5145 13.6449C50.3418 13.6449 51.0123 12.9671 51.0123 12.1316C51.0123 11.295 50.3415 10.6191 49.5145 10.6191ZM50.6541 14.3234H48.3386C48.2321 14.3234 48.1373 14.4329 48.1373 14.5393V22.5787C48.1373 22.815 48.2846 22.8852 48.475 22.8852H50.5608C50.7902 22.8852 50.8461 22.7726 50.8461 22.5748V14.5174C50.8462 14.492 50.8413 14.4669 50.8317 14.4435C50.8222 14.4201 50.808 14.3988 50.7902 14.3808C50.7724 14.3628 50.7512 14.3486 50.7278 14.3388C50.7045 14.329 50.6794 14.3235 50.6541 14.3234ZM76.7191 14.3415H74.4135C74.3882 14.3417 74.3632 14.3469 74.3399 14.3568C74.3166 14.3667 74.2954 14.381 74.2777 14.3991C74.2599 14.4171 74.2459 14.4385 74.2364 14.462C74.2269 14.4854 74.2221 14.5105 74.2223 14.5359V20.4963C74.2223 20.4963 73.6363 20.9243 72.8054 20.9243C71.9746 20.9243 71.7541 20.5476 71.7541 19.7337V14.5359C71.7543 14.5105 71.7495 14.4854 71.74 14.4619C71.7304 14.4384 71.7164 14.417 71.6986 14.399C71.6808 14.3809 71.6596 14.3665 71.6362 14.3567C71.6129 14.3468 71.5878 14.3417 71.5625 14.3415H69.223C69.1718 14.342 69.1228 14.3626 69.0869 14.399C69.0509 14.4355 69.0308 14.4847 69.031 14.5359V20.127C69.031 22.5443 70.3785 23.1358 72.2318 23.1358C73.7523 23.1358 74.9784 22.2953 74.9784 22.2953C74.9784 22.2953 75.0362 22.7387 75.0632 22.7907C75.0902 22.8431 75.1584 22.896 75.2328 22.896L76.721 22.8894C76.7464 22.8893 76.7716 22.8842 76.795 22.8744C76.8185 22.8646 76.8397 22.8502 76.8576 22.8322C76.8755 22.8141 76.8897 22.7927 76.8993 22.7692C76.909 22.7457 76.9139 22.7205 76.9138 22.6951L76.9126 14.5347C76.9124 14.4836 76.8921 14.4346 76.856 14.3983C76.8199 14.3621 76.771 14.3416 76.7199 14.3412L76.7191 14.3415ZM83.0196 14.0686C81.7103 14.0686 80.8197 14.6527 80.8197 14.6527V10.5362C80.8199 10.5109 80.815 10.4858 80.8055 10.4624C80.7959 10.4389 80.7819 10.4176 80.7641 10.3996C80.7463 10.3816 80.7251 10.3673 80.7018 10.3574C80.6785 10.3476 80.6534 10.3425 80.6281 10.3423H78.299C78.2736 10.3423 78.2485 10.3473 78.225 10.3571C78.2015 10.3669 78.1802 10.3812 78.1623 10.3992C78.1444 10.4172 78.1302 10.4386 78.1206 10.4621C78.111 10.4856 78.1061 10.5108 78.1063 10.5362V22.6924C78.1061 22.7178 78.111 22.743 78.1206 22.7665C78.1302 22.79 78.1444 22.8114 78.1623 22.8294C78.1802 22.8475 78.2015 22.8618 78.225 22.8715C78.2485 22.8813 78.2736 22.8863 78.299 22.8863H79.9152C79.9885 22.8863 80.0432 22.8489 80.0837 22.783C80.1234 22.7174 80.1816 22.2224 80.1816 22.2224C80.1816 22.2224 81.1339 23.1246 82.9375 23.1246C85.0541 23.1246 86.2686 22.0512 86.2686 18.3045C86.2686 14.5578 84.3293 14.0682 83.0192 14.0682L83.0196 14.0686ZM82.1097 20.9174C81.3105 20.8931 80.7681 20.5303 80.7681 20.5303V16.6806C80.7681 16.6806 81.3032 16.3529 81.9594 16.2935C82.7895 16.2191 83.5894 16.4701 83.5894 18.4503C83.5894 20.5387 83.229 20.9509 82.1101 20.917L82.1097 20.9174ZM57.5549 20.8719C57.4535 20.8719 57.1937 20.9131 56.9265 20.9131C56.0706 20.9131 55.7803 20.5152 55.7803 20.0001V16.5819H57.5229C57.5484 16.5819 57.5736 16.5769 57.5971 16.5671C57.6206 16.5573 57.6419 16.543 57.6598 16.5249C57.6777 16.5069 57.6919 16.4854 57.7015 16.4619C57.7111 16.4383 57.7159 16.4131 57.7157 16.3876V14.5154C57.7158 14.49 57.7109 14.4649 57.7013 14.4414C57.6916 14.4179 57.6774 14.3966 57.6595 14.3786C57.6416 14.3606 57.6203 14.3464 57.5969 14.3366C57.5735 14.3269 57.5483 14.3219 57.5229 14.3219H55.7803L55.7776 12.0202C55.7776 11.9327 55.7329 11.8891 55.6319 11.8891H53.2569C53.1652 11.8891 53.1154 11.93 53.1154 12.0183V14.3971C53.1154 14.3971 51.9253 14.6843 51.8451 14.7074C51.805 14.7191 51.7698 14.7435 51.7448 14.7768C51.7198 14.8102 51.7063 14.8508 51.7063 14.8925V16.3872C51.7061 16.4125 51.711 16.4376 51.7205 16.4611C51.73 16.4845 51.7441 16.5059 51.7619 16.5239C51.7797 16.5419 51.8009 16.5562 51.8242 16.566C51.8475 16.5759 51.8726 16.581 51.8979 16.5812H53.1154V20.1775C53.1154 22.8493 54.9892 23.1115 56.2537 23.1115C56.8309 23.1115 57.5222 22.9264 57.6363 22.884C57.7057 22.8582 57.7454 22.7868 57.7454 22.7094L57.7469 21.065C57.7462 21.0141 57.7256 20.9654 57.6897 20.9293C57.6537 20.8932 57.6051 20.8725 57.5542 20.8715L57.5549 20.8719Z" fill="white"/>
</g>
<defs>
<clipPath id="clip0_2_9">
<rect width="85.2048" height="32" fill="white" transform="translate(0.897583 0.5)"/>
</clipPath>
</defs>
</svg>
